<svg aria-hidden="true" style="position: absolute; width: 0; height: 0; overflow: hidden;" version="1.1" xmlns="http://www.w3.org/2000/svg" xmlns:xlink="http://www.w3.org/1999/xlink">
<defs>
<symbol id="icon-group6" viewBox="0 0 67 32">
<path d="M33.724 15.224a2.095 2.095 0 0 1-.43-1.414v-2.05c0-.628.142-1.106.428-1.433s.775-.489 1.469-.488c.652 0 1.115.139 1.389.417.299.355.444.789.411 1.226v.482h-1.167v-.488a2.476 2.476 0 0 0-.034-.478.467.467 0 0 0-.167-.284.681.681 0 0 0-.423-.111.711.711 0 0 0-.444.117.544.544 0 0 0-.193.313 2.398 2.398 0 0 0-.046.507v2.488c-.018.24.033.48.15.699.058.074.139.132.233.169s.198.05.301.039a.632.632 0 0 0 .413-.113.505.505 0 0 0 .174-.302c.027-.165.039-.332.036-.498v-.505h1.167v.461c.033.456-.109.909-.403 1.289-.268.305-.725.457-1.396.457s-1.179-.163-1.466-.501zM38.583 15.245c-.295-.319-.442-.784-.442-1.4v-2.157c0-.609.147-1.07.442-1.383s.788-.469 1.478-.467c.686 0 1.177.156 1.471.467.295.313.444.774.444 1.383v2.157c0 .609-.15 1.076-.449 1.397s-.788.482-1.466.482c-.679 0-1.181-.163-1.478-.48zm2.022-.518c.106-.2.154-.419.14-.638v-2.641a1.17 1.17 0 0 0-.138-.626c-.059-.075-.142-.135-.238-.172s-.203-.05-.308-.037c-.105-.013-.212 0-.308.037s-.18.096-.24.172a1.15 1.15 0 0 0-.14.626v2.653c-.015.219.033.439.14.638.068.067.152.121.246.158a.82.82 0 0 0 .6 0 .732.732 0 0 0 .246-.158v-.012zM43.38 9.901h1.256l.945 3.979.966-3.979h1.222l.123 5.743h-.904l-.097-3.992-.932 3.992h-.725l-.966-4.006-.089 4.006h-.913l.114-5.743zM49.301 9.901h1.957c1.127 0 1.691.544 1.691 1.631 0 1.041-.593 1.561-1.78 1.56h-.667v2.553h-1.208l.007-5.743zm1.672 2.455c.119.013.24.004.355-.028s.22-.084.309-.154a.928.928 0 0 0 .174-.649 1.801 1.801 0 0 0-.058-.521c-.017-.057-.047-.111-.089-.158s-.093-.086-.153-.116a1.262 1.262 0 0 0-.539-.092h-.469v1.716h.469zM54.691 9.901h1.297l1.331 5.743h-1.126l-.263-1.324h-1.157l-.271 1.324h-1.143l1.331-5.743zm1.109 3.754-.452-2.411-.452 2.411h.903zM58.395 9.901h.846l1.619 3.276V9.901h1.003v5.743h-.804l-1.628-3.42v3.42h-1.036l.002-5.743zM64.209 13.455l-1.346-3.546h1.133l.821 2.277.771-2.277h1.109l-1.329 3.546v2.19h-1.16v-2.19zM35.589 18.156v.3h-.986v2.334h-.413v-2.334h-.99v-.3h2.389zM38.679 20.79h-.319a.139.139 0 0 1-.089-.025.133.133 0 0 1-.053-.06l-.285-.626h-1.367l-.285.626a.172.172 0 0 1-.044.071.152.152 0 0 1-.089.025h-.319l1.208-2.634h.42l1.222 2.624zm-2-.978h1.14l-.483-1.072a1.75 1.75 0 0 1-.089-.248c-.017.05-.031.098-.046.14l-.044.11-.478 1.07zM40.762 20.532c.076.003.151.003.227 0a1.72 1.72 0 0 0 .367-.079c.053-.019.106-.042.162-.065v-.592h-.483c-.012.001-.024-.001-.035-.005s-.021-.009-.03-.016a.062.062 0 0 1-.024-.048v-.202h.937v1.01a1.842 1.842 0 0 1-.51.215c-.099.025-.2.043-.302.054a3.775 3.775 0 0 1-.353.017 1.842 1.842 0 0 1-.609-.098 1.485 1.485 0 0 1-.483-.275 1.293 1.293 0 0 1-.312-.417 1.316 1.316 0 0 1-.111-.547 1.352 1.352 0 0 1 .109-.551c.069-.156.176-.298.312-.417.138-.119.302-.212.483-.273.207-.067.426-.1.647-.098.112 0 .225.008.336.023a1.65 1.65 0 0 1 .53.171c.074.041.144.087.21.138l-.116.163c-.009.015-.023.027-.039.036s-.036.014-.055.014a.16.16 0 0 1-.075-.021 1.582 1.582 0 0 1-.118-.063 1.02 1.02 0 0 0-.162-.071 1.508 1.508 0 0 0-.529-.081 1.407 1.407 0 0 0-.466.073 1.026 1.026 0 0 0-.355.209.918.918 0 0 0-.225.328 1.23 1.23 0 0 0 0 .878.938.938 0 0 0 .242.332c.099.09.219.162.353.209.154.046.316.063.478.052zM44.612 20.49h1.319v.3h-1.722v-2.634h.413l-.01 2.334zM47.304 20.79h-.413v-2.634h.413v2.634zM48.84 18.168a.189.189 0 0 1 .063.048l1.766 1.986a.737.737 0 0 1 0-.094v-1.962h.36v2.645h-.208a.19.19 0 0 1-.089-.015.23.23 0 0 1-.065-.05l-1.764-1.984v2.048h-.345v-2.634h.215c.023 0 .046.004.068.012zM54.07 18.156v.29h-1.464v.87h1.186v.279h-1.186v.899h1.464v.29h-1.889v-2.628h1.889zM10.782 1.888l18.343 4.497v15.757l-18.343-4.494V1.889zM9.605.545v17.867l20.694 5.074V5.621L9.605.545z"/>
<path d="M20.696 31.781 0 26.702V8.836l20.696 5.076V31.78z"/>
<path d="m9.948 1.686 18.104 4.44-7.699 6.649L2.247 8.333l7.702-6.647zM9.605.545 0 8.837l20.696 5.076 9.603-8.292L9.605.545zM21.861 30.776l8.438-7.287-8.438-2.071v9.358z"/></symbol>
<symbol id="icon-group5" viewBox="0 0 43 32">
<path d="M3.239 26.373a.98.98 0 0 1 .25.665c.008.158-.022.315-.089.46s-.169.275-.298.38a1.788 1.788 0 0 1-1.125.307H0V23.97h1.937c.382-.023.761.076 1.073.28.125.096.224.217.289.354s.095.286.086.435a.923.923 0 0 1-.225.645 1.06 1.06 0 0 1-.589.329c.262.044.499.172.668.36zM.92 25.737h.828a.835.835 0 0 0 .526-.14c.062-.052.111-.116.141-.187s.043-.148.036-.225c.006-.076-.007-.153-.037-.224s-.078-.135-.138-.188a.858.858 0 0 0-.542-.142H.92v1.106zm1.435 1.616c.066-.053.119-.119.153-.193s.049-.155.043-.235c.005-.081-.01-.163-.045-.238s-.088-.142-.155-.195a.907.907 0 0 0-.562-.152H.921v1.159H1.8a.93.93 0 0 0 .556-.146zM7.197 28.185 6.12 26.538h-.405v1.647h-.927V23.97h1.754c.442-.028.879.1 1.221.358.245.229.393.53.417.85s-.078.637-.287.894a1.46 1.46 0 0 1-.837.428l1.147 1.684H7.195zm-1.482-2.222h.758c.526 0 .789-.213.789-.638a.586.586 0 0 0-.193-.473.87.87 0 0 0-.596-.171h-.767l.009 1.283zM12.262 27.337h-1.847l-.326.848h-.972l1.696-4.168h1.05l1.689 4.168h-.972l-.319-.848zm-.247-.639-.675-1.779-.675 1.779h1.349zM18.602 28.185h-.92l-2.062-2.867v2.867h-.918V23.97h.918l2.062 2.883V23.97h.92v4.215zM23.852 27.176c-.19.318-.48.577-.832.743-.4.185-.845.276-1.293.266H20.09V23.97h1.637c.448-.011.891.078 1.293.259.352.163.642.419.832.735.189.343.288.722.288 1.106s-.099.763-.288 1.106zm-1.053-.101c.263-.28.407-.637.407-1.006s-.144-.726-.407-1.006a1.692 1.692 0 0 0-1.152-.358h-.639v2.729h.639a1.7 1.7 0 0 0 1.152-.358zM12.838.522s11.873 4.104 11.621 10.043V20.61s-11.864-4.106-11.617-10.045L12.837.522zM35.037 18.259c2.242-1.413 4.836-2.288 7.544-2.545v-3.145c-3.12 1.101-5.766 3.097-7.544 5.69z"/>
<path d="M33.69 19.206c1.835-3.384 5.017-5.995 8.891-7.296V2.849S25.672 8.695 26.03 17.153v14.302s.753-.262 1.939-.752c0-.457 0-.918.054-1.382.35-3.926 2.389-7.565 5.668-10.115z"/>
<path d="M32.081 24.52a13.62 13.62 0 0 1 .592-2.928c-2.042 2.203-3.278 4.936-3.536 7.815-.025.272-.038.544-.045.824a50.77 50.77 0 0 0 3.252-1.569 13.564 13.564 0 0 1-.263-4.141zM32.754 24.571a12.973 12.973 0 0 0 .209 3.75c4.62-2.531 9.811-6.442 9.611-11.168v-.412c-3.301.338-6.389 1.659-8.79 3.76a13.125 13.125 0 0 0-1.03 4.069z"/></symbol>
<symbol id="icon-group4" viewBox="0 0 65 32">
<path d="M10.016 9.983h-.002c-1.827 0-3.308 1.316-3.308 2.94v.002c0 1.624 1.481 2.94 3.308 2.94h.002c1.827 0 3.308-1.316 3.308-2.94v-.002c0-1.624-1.481-2.94-3.308-2.94zM34.434 9.043c-.005-2.255-1.015-4.417-2.81-6.012S27.398.538 24.86.533c-2.538.004-4.972.902-6.767 2.497s-2.806 3.757-2.811 6.013v12.436s19.149-1.895 19.151-12.434v-.002zM0 25.562c.005 1.569.708 3.073 1.956 4.183s2.94 1.735 4.706 1.74c1.765-.005 3.457-.63 4.705-1.739s1.952-2.613 1.957-4.182V16.91S-.001 18.23-.001 25.562zm6.662 1.55c-.345 0-.682-.091-.969-.261s-.511-.413-.643-.696-.167-.595-.099-.896.233-.577.477-.794.555-.364.893-.424c.338-.06.689-.029 1.008.088s.591.316.783.571a1.404 1.404 0 0 1 .163 1.456c-.087.189-.216.36-.378.505-.162.145-.355.259-.567.338s-.439.119-.669.119v-.006zM20.128 26.258h-1.286v1.328h-.67v-3.25h2.116v.542h-1.446v.839h1.286v.54zm3.218-.223c0 .32-.057.6-.17.842s-.275.427-.487.558c-.21.131-.451.196-.723.196a1.289 1.289 0 0 1-1.212-.748 1.907 1.907 0 0 1-.176-.83v-.161c0-.32.057-.601.172-.844a1.285 1.285 0 0 1 1.212-.756c.271 0 .511.065.721.196.211.129.374.316.489.56.116.242.174.523.174.841v.145zm-.678-.147c0-.341-.061-.6-.183-.777s-.296-.266-.522-.266a.596.596 0 0 0-.52.263c-.122.174-.184.43-.185.768v.158c0 .332.061.589.183.772s.298.275.527.275a.592.592 0 0 0 .518-.263c.121-.177.182-.434.183-.772v-.158zm2.85.846a.342.342 0 0 0-.134-.29c-.089-.068-.25-.14-.482-.214a3.465 3.465 0 0 1-.551-.223c-.369-.199-.554-.468-.554-.806 0-.176.049-.332.147-.469a.985.985 0 0 1 .426-.324c.186-.077.394-.116.625-.116.232 0 .439.042.621.127a.978.978 0 0 1 .422.355.926.926 0 0 1 .152.522h-.67a.434.434 0 0 0-.141-.346c-.094-.083-.225-.125-.395-.125-.164 0-.291.035-.382.105a.323.323 0 0 0-.136.272c0 .106.053.194.158.266.107.071.264.138.471.201.381.115.659.257.833.426s.261.381.261.634a.785.785 0 0 1-.319.663c-.213.159-.499.239-.859.239-.25 0-.478-.045-.683-.136a1.1 1.1 0 0 1-.471-.377.97.97 0 0 1-.161-.554h.672c0 .359.214.538.643.538a.631.631 0 0 0 .373-.096.318.318 0 0 0 .134-.272zm3.574-1.855h-.996v2.708h-.67v-2.708h-.982v-.542h2.647v.542zm2.339 1.299h-1.286v.871h1.509v.538h-2.179v-3.25h2.174v.542h-1.504v.775h1.286v.525zm1.82.218h-.533v1.19h-.67v-3.25h1.208c.384 0 .68.086.888.257s.312.413.312.725a.998.998 0 0 1-.145.556.979.979 0 0 1-.435.353l.703 1.328v.031h-.719l-.609-1.19zm-.534-.542h.54c.168 0 .298-.042.391-.127a.463.463 0 0 0 .138-.355.49.49 0 0 0-.132-.362c-.086-.088-.219-.132-.4-.132h-.538v.975zm4.058.587v1.145h-.67v-3.25h1.268c.244 0 .458.045.643.134a.98.98 0 0 1 .429.382c.1.164.15.35.15.56 0 .318-.109.57-.328.754-.217.183-.519.275-.904.275h-.587zm0-.542h.598c.177 0 .312-.042.404-.125.094-.083.141-.202.141-.357 0-.159-.047-.288-.141-.386s-.223-.149-.388-.152h-.614v1.02zm4.237.279h-1.286v.871h1.509v.538h-2.179v-3.25h2.174v.542h-1.504v.775h1.286v.525zm3.107-1.299h-.995v2.708h-.67v-2.708h-.982v-.542h2.647v.542zm2.339 1.299h-1.286v.871h1.509v.538h-2.178v-3.25h2.174v.542h-1.504v.775h1.286v.525zm1.819.218h-.533v1.19h-.67v-3.25h1.208c.384 0 .68.086.888.257s.313.413.313.725a.998.998 0 0 1-.145.556.979.979 0 0 1-.435.353l.703 1.328v.031h-.719l-.609-1.19zm-.533-.542h.54c.168 0 .298-.042.391-.127a.463.463 0 0 0 .138-.355.49.49 0 0 0-.132-.362c-.086-.088-.219-.132-.4-.132h-.538v.975zm3.935.88a.342.342 0 0 0-.134-.29c-.089-.068-.25-.14-.482-.214a3.465 3.465 0 0 1-.551-.223c-.369-.199-.554-.468-.554-.806 0-.176.049-.332.147-.469a.985.985 0 0 1 .426-.324c.186-.077.394-.116.625-.116.232 0 .439.042.621.127a.973.973 0 0 1 .422.355.926.926 0 0 1 .152.522h-.67a.434.434 0 0 0-.141-.346c-.094-.083-.225-.125-.395-.125-.164 0-.291.035-.382.105a.323.323 0 0 0-.136.272c0 .106.053.194.158.266.107.071.264.138.471.201.381.115.658.257.833.426s.261.381.261.634a.785.785 0 0 1-.319.663c-.213.159-.499.239-.859.239-.25 0-.478-.045-.683-.136a1.1 1.1 0 0 1-.471-.377.97.97 0 0 1-.161-.554h.672c0 .359.214.538.643.538a.634.634 0 0 0 .373-.096.318.318 0 0 0 .134-.272z"/></symbol>
<symbol id="icon-group3" viewBox="0 0 34 32"><path d="M5.643 31.315a.095.095 0 0 1 .064.025l.166.159a1.373 1.373 0 0 1-.467.302c-.21.076-.435.113-.663.108a1.767 1.767 0 0 1-.623-.101 1.37 1.37 0 0 1-.469-.285 1.277 1.277 0 0 1-.303-.44 1.472 1.472 0 0 1-.106-.565 1.31 1.31 0 0 1 .436-1.007c.142-.124.312-.222.499-.287.205-.069.422-.103.642-.101.204-.004.407.027.596.092.165.062.316.148.447.255l-.139.17a.173.173 0 0 1-.035.031.097.097 0 0 1-.056.013.136.136 0 0 1-.06-.018l-.075-.045-.104-.058a1.3 1.3 0 0 0-.139-.056 1.46 1.46 0 0 0-.436-.063 1.328 1.328 0 0 0-.461.076c-.136.048-.26.121-.361.213a.987.987 0 0 0-.235.339 1.155 1.155 0 0 0-.085.448 1.17 1.17 0 0 0 .085.455.994.994 0 0 0 .231.338.938.938 0 0 0 .345.209c.136.049.281.073.428.072.085.001.17-.004.253-.014a1.01 1.01 0 0 0 .548-.233.127.127 0 0 1 .079-.029zM10.441 30.517c.003.192-.035.382-.112.561-.068.163-.174.311-.313.436s-.306.222-.491.286a2.02 2.02 0 0 1-1.263 0 1.454 1.454 0 0 1-.488-.287 1.288 1.288 0 0 1-.316-.44 1.462 1.462 0 0 1 0-1.125c.071-.164.178-.314.316-.442.139-.12.305-.214.488-.276a1.992 1.992 0 0 1 1.263 0c.185.065.351.163.49.287.137.125.243.273.314.435.077.181.115.372.112.565zm-.436 0a1.186 1.186 0 0 0-.079-.451.941.941 0 0 0-.222-.338.971.971 0 0 0-.351-.213 1.456 1.456 0 0 0-.918 0 .971.971 0 0 0-.351.213.897.897 0 0 0-.224.338 1.322 1.322 0 0 0 0 .903.926.926 0 0 0 .575.549 1.5 1.5 0 0 0 .918 0 .98.98 0 0 0 .351-.211.933.933 0 0 0 .222-.338c.056-.145.082-.298.079-.451zM13.715 30.99l.044.101c.017-.036.031-.069.048-.101a.95.95 0 0 1 .054-.099l1.062-1.677c.021-.029.039-.047.06-.052a.283.283 0 0 1 .087-.009h.314v2.727h-.372v-2.09a.737.737 0 0 1 0-.094l-1.068 1.7c-.014.025-.035.047-.062.062s-.059.023-.091.023h-.06c-.032 0-.064-.007-.091-.022s-.049-.037-.062-.062l-1.099-1.711v2.189h-.359v-2.722h.314a.283.283 0 0 1 .087.009c.026.011.046.03.058.052l1.084 1.678a.662.662 0 0 1 .054.097zM17.71 30.855v1.021h-.415v-2.723h.926c.175-.003.349.017.517.059.134.033.259.091.366.17a.713.713 0 0 1 .208.267.825.825 0 0 1 .071.348.771.771 0 0 1-.301.621 1.062 1.062 0 0 1-.368.18 1.757 1.757 0 0 1-.501.063l-.503-.007zm0-.293h.503a1.2 1.2 0 0 0 .322-.041.71.71 0 0 0 .233-.117.526.526 0 0 0 .191-.409c.005-.076-.009-.151-.042-.222s-.082-.134-.145-.186a.889.889 0 0 0-.559-.146h-.503v1.122zM23.294 31.88h-.328a.158.158 0 0 1-.091-.025.17.17 0 0 1-.054-.063l-.282-.659H21.12l-.293.659a.152.152 0 0 1-.145.088h-.328l1.246-2.727h.432l1.263 2.727zm-2.057-1.013h1.172l-.494-1.11a1.746 1.746 0 0 1-.093-.256l-.048.143a1.404 1.404 0 0 1-.046.116l-.49 1.108zM25.089 29.165a.178.178 0 0 1 .062.049l1.818 2.056v-2.117h.372v2.727h-.208a.204.204 0 0 1-.085-.016.221.221 0 0 1-.066-.05l-1.816-2.054a.737.737 0 0 1 0 .094v2.027h-.372v-2.727h.22a.191.191 0 0 1 .075.013zM30.402 30.795v1.083h-.415v-1.083l-1.149-1.642h.372a.15.15 0 0 1 .089.023.23.23 0 0 1 .056.061l.719 1.059a1.064 1.064 0 0 1 .127.242l.054-.117a.975.975 0 0 1 .071-.125l.708-1.067a.295.295 0 0 1 .054-.058.14.14 0 0 1 .089-.027h.376l-1.151 1.65zM13.51 24.576c.181.02.364.036.548.051 2.803-1.089 5.174-2.873 6.817-5.126s2.485-4.878 2.421-7.546l-3.089-2.684c.628 2.84.334 5.776-.849 8.479s-3.208 5.067-5.849 6.827z"/><path d="m12.407 24.451.083.014c2.822-1.754 4.974-4.203 6.176-7.03s1.402-5.904.571-8.83l-4.4-3.823c1.78 3.142 2.496 6.659 2.066 10.141s-1.989 6.786-4.496 9.528zM27.328 15.106c-.747 2.931-2.563 5.574-5.177 7.537a16.532 16.532 0 0 1-2.459 1.534c2.128-.544 4.085-1.504 5.718-2.809s2.9-2.917 3.703-4.714l-1.784-1.549z"/><path d="m26.628 14.674-2.541-2.207c-.049 2.517-.872 4.976-2.385 7.123s-3.66 3.902-6.217 5.084h.012c.57 0 1.139-.03 1.706-.088 2.39-.848 4.502-2.196 6.147-3.926s2.771-3.785 3.278-5.985zM12.774 3.17 9.743.533c-2.709.91-5.04 2.509-6.686 4.588S.526 9.663.517 12.187c.01 2.789 1.09 5.495 3.07 7.69s4.745 3.754 7.859 4.43c2.78-2.942 4.407-6.579 4.646-10.38s-.924-7.569-3.319-10.757zM33.63 14.268c-.011-3.309-1.529-6.479-4.221-8.818s-6.342-3.658-10.15-3.668a16.144 16.144 0 0 0-5.146.832L32.67 18.737a10.94 10.94 0 0 0 .96-4.469z"/></symbol>
<symbol id="icon-group2" viewBox="0 0 24 32">
<path d="M10.333 2.202h-.082c-.127-.008-.254-.011-.38-.014h-.275c-.24 0-.484.006-.727.018a.505.505 0 0 0-.055 0 17.08 17.08 0 0 0-6.349 1.62l-.261.126V17.32l.611-.207c.536-.184 1.107-.35 1.698-.504a20.731 20.731 0 0 1 4.888-.649v1.756c-.218.002-.431.008-.643.018h-.05c-1.269.07-2.528.263-3.76.577a19.11 19.11 0 0 0-4.48 1.746V2.912a17.931 17.931 0 0 1 4.7-1.911A17.94 17.94 0 0 1 9.597.43h.258c.309.008.609.022.892.043.744.052 1.483.17 2.207.352v1.729a13.54 13.54 0 0 0-2.182-.326 5.148 5.148 0 0 0-.437-.025zm3.042 1.768c.383.029.78.043 1.182.043a19.006 19.006 0 0 0 4.657-.597 19.187 19.187 0 0 0 4.478-1.747v16.84c-1.47.856-3.053 1.5-4.701 1.912a18.089 18.089 0 0 1-4.429.57 13.539 13.539 0 0 1-3.36-.396V3.646a13.76 13.76 0 0 0 2.174.325zm8.57.13-.611.206c-.562.189-1.129.358-1.698.508a20.693 20.693 0 0 1-5.075.651c-.399 0-.765-.011-1.12-.034l-.487-.032v13.752l.418.037c.388.034.788.051 1.191.051a16.284 16.284 0 0 0 3.997-.517 16.81 16.81 0 0 0 3.123-1.122l.261-.126V4.101zM1.653 25.917a.9.9 0 0 0-.68-.275 1.002 1.002 0 0 0-.393.074.874.874 0 0 0-.502.508.984.984 0 0 0-.07.379v2.291c-.005.161.025.322.09.47a.922.922 0 0 0 .229.307.804.804 0 0 0 .315.163c.111.031.226.047.342.048a.86.86 0 0 0 .37-.08.951.951 0 0 0 .505-.519.919.919 0 0 0 .073-.365v-.256h-.599v.204a.525.525 0 0 1-.035.204.368.368 0 0 1-.087.129.41.41 0 0 1-.25.087.307.307 0 0 1-.281-.122.543.543 0 0 1-.079-.307v-2.136a.723.723 0 0 1 .073-.342.303.303 0 0 1 .293-.138.317.317 0 0 1 .267.129.485.485 0 0 1 .099.307v.198h.593v-.233a1.1 1.1 0 0 0-.073-.401.928.928 0 0 0-.2-.322zM5.21 25.891a1.07 1.07 0 0 0-.681-.252 1.058 1.058 0 0 0-.357.064.947.947 0 0 0-.548.508c-.06.14-.09.291-.087.444v2.197c-.004.155.026.308.087.45a.886.886 0 0 0 .232.307.928.928 0 0 0 .316.193 1.038 1.038 0 0 0 .714 0c.119-.043.229-.109.324-.193a.938.938 0 0 0 .226-.307c.061-.142.091-.295.087-.45v-2.197a1.076 1.076 0 0 0-.087-.444.99.99 0 0 0-.226-.321zm-.28 2.962a.387.387 0 0 1-.119.317.441.441 0 0 1-.564 0 .389.389 0 0 1-.119-.317v-2.197a.387.387 0 0 1 .119-.317.441.441 0 0 1 .564 0 .389.389 0 0 1 .119.317v2.197zM9.882 29.834v-4.159h-.576l-.756 2.202h-.011l-.762-2.202h-.57v4.159h.594v-2.53h.011l.582 1.789h.296l.586-1.789h.011v2.53h.594zM13.258 25.966a.82.82 0 0 0-.336-.227 1.314 1.314 0 0 0-.431-.064h-.883v4.159h.593V28.21h.305a1.09 1.09 0 0 0 .535-.114.863.863 0 0 0 .325-.318.989.989 0 0 0 .136-.362 3 3 0 0 0 .032-.473c.006-.2-.014-.399-.058-.594a.896.896 0 0 0-.218-.382zm-.306 1.269a.523.523 0 0 1-.055.216.333.333 0 0 1-.153.146.613.613 0 0 1-.28.052h-.27v-1.414h.305a.558.558 0 0 1 .267.052c.061.035.11.089.139.154.032.073.05.152.052.232v.276c0 .096.006.197 0 .286h-.006zM16.065 25.675h-.486l-.916 4.159h.593l.174-.894h.808l.174.894h.593l-.939-4.159zm-.547 2.699.292-1.508h.011l.29 1.508h-.593zM19.894 28.18h-.011l-.895-2.506h-.57v4.159h.593v-2.501h.012l.906 2.501h.557v-4.159h-.593v2.506zM23.516 25.675l-.477 1.654h-.012l-.477-1.654h-.628l.814 2.401v1.758h.593v-1.758l.814-2.401h-.628zM0 31.008h.286v.801H.48v-.801h.284v-.164H0v.164zM2.401 30.844l-.374.966h.206l.079-.22h.385l.082.22h.211l-.383-.966h-.206zm-.031.584.131-.358.131.358h-.263zM4.775 31.454h.223v.124a.368.368 0 0 1-.229.081.242.242 0 0 1-.204-.092.409.409 0 0 1-.072-.252c0-.215.093-.322.278-.322a.206.206 0 0 1 .218.153l.191-.037c-.041-.189-.177-.284-.409-.284a.49.49 0 0 0-.338.124.466.466 0 0 0-.139.371.524.524 0 0 0 .124.362.46.46 0 0 0 .367.141.582.582 0 0 0 .409-.153v-.381h-.418v.163zM7.199 30.844h-.196v.966h.677v-.164h-.481v-.801zM9.248 30.844h-.195v.966h.195v-.966zM11.252 31.489l-.396-.645h-.189v.966h.182v-.631l.388.631h.194v-.966h-.179v.645zM13.064 31.385h.481v-.164h-.481v-.212h.518v-.164h-.713v.966h.733v-.164h-.538v-.261zM17.456 31.225h-.38v-.381h-.194v.966h.194v-.422h.38v.422h.194v-.966h-.194v.381zM19.279 31.385h.483v-.164h-.483v-.212h.519v-.164h-.713v.966h.732v-.164h-.538v-.261zM21.75 31.385c.168-.026.254-.115.254-.269.005-.041-.001-.083-.018-.12s-.043-.07-.077-.094a.542.542 0 0 0-.283-.057h-.409v.966h.194v-.404h.038a.265.265 0 0 1 .121.021.204.204 0 0 1 .069.071l.211.307h.232l-.118-.189a.67.67 0 0 0-.214-.232zm-.196-.134h-.144v-.243h.153a.504.504 0 0 1 .197.023c.014.012.025.028.033.045s.011.036.01.055c-.001.019-.006.037-.015.054s-.021.031-.037.042a.55.55 0 0 1-.197.023zM23.613 31.385h.481v-.164h-.481v-.212h.519v-.164h-.715v.966h.733v-.164h-.538v-.261z"/></symbol>
<symbol id="icon-group1" viewBox="0 0 27 32">
<path d="m4 .475 4.672 4.423L0 4.893v21.458h22.667v-8.204l4.667 4.418V.476H4.001zm18.462 17.153L9.215 5.088h13.247v12.54zm-4.113 5.584H3.587V8.78H4.63v13.454h13.719v.977zM7.073 29.208l-.545 1.123-.545-1.123h-.457l.796 1.497v.872h.413v-.872l.794-1.497h-.456zm.685 2.37.192-.552h.918l.194.552h.43l-.897-2.37h-.369l-.895 2.37h.428zm.651-1.867.343.983h-.687l.343-.983zm2.171.926a.537.537 0 0 0-.09.301c0 .2.07.362.21.487.141.124.329.186.563.186s.436-.063.605-.19l.133.158h.459l-.348-.412c.137-.187.205-.426.205-.718h-.343a.95.95 0 0 1-.099.435l-.457-.54.161-.117a.894.894 0 0 0 .246-.247.524.524 0 0 0 .075-.273.487.487 0 0 0-.166-.376.598.598 0 0 0-.423-.153.629.629 0 0 0-.456.163.576.576 0 0 0-.169.439.58.58 0 0 0 .054.236c.037.081.101.18.194.296-.176.126-.294.235-.353.327zm1.069.524a.603.603 0 0 1-.374.133c-.118 0-.213-.034-.283-.103s-.106-.157-.106-.267c0-.127.065-.24.195-.339l.05-.036.518.61zm-.424-1.05c-.112-.138-.168-.252-.168-.343 0-.079.023-.145.068-.197s.107-.078.184-.078c.072 0 .131.022.177.067.047.043.07.096.07.158 0 .093-.034.17-.101.23l-.05.041-.181.124zm3.857 1.288c.163-.142.256-.34.28-.592h-.41c-.022.169-.073.29-.155.363s-.203.109-.365.109a.459.459 0 0 1-.404-.202c-.091-.135-.137-.33-.137-.586v-.21c.002-.253.051-.444.146-.575a.483.483 0 0 1 .413-.197c.154 0 .271.038.35.114.08.075.13.197.15.368h.41c-.026-.259-.119-.46-.278-.602s-.37-.213-.632-.213a.955.955 0 0 0-.514.138c-.148.092-.261.224-.34.394s-.119.367-.119.591v.221c.003.218.044.41.122.575s.189.292.332.383a.932.932 0 0 0 .5.133c.27 0 .487-.071.649-.212zm2.42-.332c.08-.176.12-.38.12-.612v-.132a1.423 1.423 0 0 0-.124-.607.897.897 0 0 0-.347-.4c-.149-.093-.32-.14-.513-.14s-.365.047-.514.142a.924.924 0 0 0-.347.405 1.456 1.456 0 0 0-.122.612v.133c.001.227.042.427.124.601a.934.934 0 0 0 .348.402.96.96 0 0 0 .514.14.947.947 0 0 0 .514-.14.908.908 0 0 0 .345-.404zm-.441-1.34c.1.14.15.341.15.604v.124c0 .267-.049.47-.148.609a.483.483 0 0 1-.42.208.492.492 0 0 1-.423-.213c-.101-.142-.151-.343-.151-.604v-.137c.002-.255.053-.452.153-.591.101-.14.24-.21.418-.21.182 0 .323.07.422.21z"/></symbol>


<symbol id="icon-linkedin" viewBox="0 0 32 32">
<path d="M31.992 32v-0.001h0.008v-11.736c0-5.741-1.236-10.164-7.948-10.164-3.227 0-5.392 1.771-6.276 3.449h-0.093v-2.913h-6.364v21.364h6.627v-10.579c0-2.785 0.528-5.479 3.977-5.479 3.399 0 3.449 3.179 3.449 5.657v10.401h6.62z"></path>
<path d="M0.528 10.636h6.635v21.364h-6.635v-21.364z"></path>
<path d="M3.843 0c-2.121 0-3.843 1.721-3.843 3.843s1.721 3.879 3.843 3.879c2.121 0 3.843-1.757 3.843-3.879-0.001-2.121-1.723-3.843-3.843-3.843v0z"></path>
</symbol>
<symbol id="icon-facebook" viewBox="0 0 32 32">
<path d="M21.329 5.313h2.921v-5.088c-0.504-0.069-2.237-0.225-4.256-0.225-4.212 0-7.097 2.649-7.097 7.519v4.481h-4.648v5.688h4.648v14.312h5.699v-14.311h4.46l0.708-5.688h-5.169v-3.919c0.001-1.644 0.444-2.769 2.735-2.769z"></path>
</symbol>
<symbol id="icon-twitter" viewBox="0 0 32 32">
<path d="M32 6.078c-1.19 0.522-2.458 0.868-3.78 1.036 1.36-0.812 2.398-2.088 2.886-3.626-1.268 0.756-2.668 1.29-4.16 1.588-1.204-1.282-2.92-2.076-4.792-2.076-3.632 0-6.556 2.948-6.556 6.562 0 0.52 0.044 1.020 0.152 1.496-5.454-0.266-10.28-2.88-13.522-6.862-0.566 0.982-0.898 2.106-0.898 3.316 0 2.272 1.17 4.286 2.914 5.452-1.054-0.020-2.088-0.326-2.964-0.808 0 0.020 0 0.046 0 0.072 0 3.188 2.274 5.836 5.256 6.446-0.534 0.146-1.116 0.216-1.72 0.216-0.42 0-0.844-0.024-1.242-0.112 0.85 2.598 3.262 4.508 6.13 4.57-2.232 1.746-5.066 2.798-8.134 2.798-0.538 0-1.054-0.024-1.57-0.090 2.906 1.874 6.35 2.944 10.064 2.944 12.072 0 18.672-10 18.672-18.668 0-0.29-0.010-0.57-0.024-0.848 1.302-0.924 2.396-2.078 3.288-3.406z"></path>
</symbol>
<symbol id="icon-instagram-2" viewBox="0 0 32 32"><path d="M31.969 9.408c-.075-1.7-.35-2.869-.744-3.882a7.806 7.806 0 0 0-1.851-2.838A7.867 7.867 0 0 0 26.542.844C25.523.45 24.36.175 22.66.1 20.947.019 20.403 0 16.059 0s-4.888.019-6.595.094c-1.7.075-2.869.35-3.882.744a7.803 7.803 0 0 0-2.838 1.85A7.867 7.867 0 0 0 .9 5.52C.506 6.539.231 7.702.156 9.402c-.081 1.713-.1 2.257-.1 6.601s.019 4.888.094 6.595c.075 1.7.35 2.869.744 3.882a7.895 7.895 0 0 0 1.85 2.838 7.867 7.867 0 0 0 2.832 1.844c1.019.394 2.182.669 3.882.744 1.706.075 2.25.094 6.595.094s4.888-.019 6.595-.094c1.7-.075 2.869-.35 3.882-.744a8.184 8.184 0 0 0 4.682-4.682c.394-1.019.669-2.182.744-3.882.075-1.707.094-2.251.094-6.595s-.006-4.888-.081-6.595zm-2.882 13.065c-.069 1.563-.331 2.407-.55 2.969a5.31 5.31 0 0 1-3.038 3.038c-.563.219-1.413.481-2.969.55-1.688.075-2.194.094-6.464.094s-4.782-.019-6.464-.094c-1.563-.069-2.407-.331-2.969-.55a4.926 4.926 0 0 1-1.838-1.194 4.974 4.974 0 0 1-1.194-1.838c-.219-.563-.481-1.413-.55-2.969-.075-1.688-.094-2.194-.094-6.464s.019-4.782.094-6.464c.069-1.563.331-2.407.55-2.969a4.868 4.868 0 0 1 1.2-1.838A4.974 4.974 0 0 1 6.639 3.55c.563-.219 1.413-.481 2.969-.55 1.688-.075 2.194-.094 6.464-.094 4.276 0 4.782.019 6.464.094 1.563.069 2.407.331 2.969.55a4.914 4.914 0 0 1 1.838 1.194 4.974 4.974 0 0 1 1.194 1.838c.219.563.481 1.413.55 2.969.075 1.688.094 2.194.094 6.464s-.019 4.77-.094 6.458z"/><path d="M16.059 7.783c-4.538 0-8.22 3.682-8.22 8.22s3.682 8.22 8.22 8.22c4.539 0 8.22-3.682 8.22-8.22s-3.682-8.22-8.22-8.22zm0 13.552a5.333 5.333 0 0 1 0-10.664 5.333 5.333 0 0 1 0 10.664zM26.524 7.458a1.919 1.919 0 1 1-3.838 0 1.919 1.919 0 0 1 3.838 0z"/></symbol>



<symbol id="icon-tel" viewBox="0 0 260 32"><path d="M49.379 15.049h5.195v3.035h-5.195v5.92h-3.227v-5.92h-5.223v-3.035h5.223V9.512h3.227v5.537zm19.523 3.855h2.475v2.666h-2.475V26H65.58v-4.43h-8.6l-.096-2.024L65.47 6.093h3.432v12.811zm-8.531 0h5.209v-8.313l-.246.438-4.963 7.875zm26.304-7.56c0 .975-.251 1.846-.752 2.611-.501.756-1.185 1.354-2.051 1.791 1.039.483 1.837 1.144 2.393 1.982.565.839.848 1.786.848 2.844 0 1.75-.592 3.14-1.777 4.17-1.185 1.021-2.762 1.531-4.73 1.531-1.978 0-3.564-.515-4.758-1.545-1.185-1.03-1.777-2.415-1.777-4.156 0-1.066.283-2.023.848-2.871s1.358-1.499 2.379-1.955c-.857-.438-1.536-1.035-2.037-1.791-.492-.766-.738-1.636-.738-2.611 0-1.695.547-3.04 1.641-4.033s2.57-1.49 4.43-1.49c1.868 0 3.35.497 4.443 1.49s1.641 2.338 1.641 4.033zm-2.885 9.064c0-.984-.296-1.777-.889-2.379-.583-.611-1.358-.916-2.324-.916s-1.741.301-2.324.902c-.574.602-.861 1.399-.861 2.393 0 .975.283 1.755.848 2.338.574.583 1.363.875 2.365.875s1.782-.282 2.338-.848c.565-.565.848-1.353.848-2.365zm-.424-8.941c0-.866-.251-1.577-.752-2.133-.501-.565-1.176-.848-2.023-.848s-1.518.269-2.01.807c-.492.529-.738 1.253-.738 2.174 0 .911.246 1.636.738 2.174.501.538 1.176.807 2.023.807s1.518-.269 2.01-.807c.501-.538.752-1.262.752-2.174zM107.14 26h-3.309V10.018l-4.881 1.668V8.883l7.766-2.857h.424v19.975zm16.474 0h-3.309V10.018l-4.881 1.668V8.883l7.766-2.857h.424v19.975zm16.475 0h-3.309V10.018l-4.881 1.668V8.883l7.766-2.857h.424v19.975zm24.006 0h-3.309V10.018l-4.881 1.668V8.883l7.766-2.857h.424v19.975zm16.474 0h-3.309V10.018l-4.881 1.668V8.883l7.766-2.857h.424v19.975zm16.474 0h-3.309V10.018l-4.881 1.668V8.883l7.766-2.857h.424v19.975zm24.007 0h-3.308V10.018l-4.882 1.668V8.883l7.766-2.857h.424v19.975zm16.474 0h-3.308V10.018l-4.882 1.668V8.883l7.766-2.857h.424v19.975zm16.474 0h-3.308V10.018l-4.882 1.668V8.883l7.766-2.857h.424v19.975zM17 0H3C1.346 0 0 1.346 0 3v26c0 1.654 1.346 3 3 3h14c1.654 0 3-1.346 3-3V3c0-1.654-1.346-3-3-3zM3 2h14a1 1 0 0 1 1 1v21H2V3a1 1 0 0 1 1-1zm14 28H3a1 1 0 0 1-1-1v-3h16v3a1 1 0 0 1-1 1z"/><path d="M4.707 27.478c.391.365.391.956 0 1.321s-1.024.365-1.414 0c-.391-.365-.391-.956 0-1.321s1.024-.365 1.414 0z"/></symbol>
<symbol id="icon-mail" viewBox="0 0 303 32"><path d="M53.87 24.471h-3.127V10.548h3.127v13.923zM50.55 6.932c0-.48.15-.879.45-1.197.309-.317.746-.476 1.312-.476s1.004.159 1.313.476c.309.317.463.716.463 1.197 0 .472-.155.866-.463 1.184-.309.309-.746.463-1.313.463S51.308 8.425 51 8.116c-.3-.317-.45-.712-.45-1.184zm10.165 3.616.09 1.608c1.029-1.244 2.38-1.866 4.053-1.866 2.899 0 4.375 1.66 4.426 4.98v9.2h-3.127v-9.02c0-.884-.193-1.536-.579-1.956-.377-.429-.999-.643-1.866-.643-1.261 0-2.2.57-2.818 1.711v9.908h-3.127V10.547h2.947zm13.394 13.923V12.864h-2.123v-2.316h2.123V9.274c0-1.544.429-2.737 1.287-3.577s2.059-1.261 3.603-1.261c.549 0 1.132.077 1.75.232l-.077 2.445a6.13 6.13 0 0 0-1.197-.103c-1.493 0-2.239.768-2.239 2.303v1.235h2.831v2.316h-2.831v11.607h-3.127zm8.184-7.09c0-1.364.27-2.591.811-3.68.54-1.098 1.3-1.939 2.278-2.522.978-.592 2.102-.888 3.371-.888 1.879 0 3.401.605 4.568 1.814 1.175 1.21 1.81 2.814 1.904 4.813l.013.733c0 1.373-.266 2.599-.798 3.68-.523 1.081-1.278 1.917-2.265 2.509-.978.592-2.11.888-3.397.888-1.964 0-3.538-.652-4.722-1.956-1.175-1.313-1.763-3.058-1.763-5.237v-.154zm3.126.27c0 1.433.296 2.556.888 3.371.592.806 1.416 1.209 2.471 1.209s1.874-.412 2.458-1.235c.592-.824.888-2.029.888-3.616 0-1.407-.305-2.522-.914-3.346-.6-.824-1.42-1.235-2.458-1.235-1.021 0-1.832.408-2.432 1.222-.6.806-.901 2.016-.901 3.629zm33.79.154c-.103 2.145-.631 3.839-1.583 5.083-.952 1.235-2.243 1.853-3.873 1.853-1.553 0-2.591-.661-3.114-1.982-.437.652-.948 1.141-1.531 1.467a3.626 3.626 0 0 1-1.814.489c-1.253 0-2.205-.515-2.857-1.544-.643-1.029-.888-2.406-.733-4.131.137-1.398.476-2.659 1.016-3.783.549-1.124 1.24-1.99 2.072-2.599.841-.618 1.733-.926 2.677-.926.721 0 1.355.09 1.904.27.558.18 1.21.553 1.956 1.119l-.669 7.244c-.163 1.699.326 2.548 1.467 2.548.875 0 1.591-.468 2.149-1.403.566-.944.875-2.162.927-3.654.146-3.165-.468-5.589-1.84-7.27-1.364-1.681-3.419-2.522-6.164-2.522-1.681 0-3.174.42-4.478 1.261-1.295.841-2.325 2.059-3.088 3.654-.763 1.587-1.184 3.397-1.261 5.43-.103 2.067.142 3.852.734 5.353.6 1.493 1.514 2.629 2.741 3.41 1.235.781 2.741 1.171 4.517 1.171.721 0 1.471-.086 2.252-.257.789-.171 1.458-.403 2.007-.695l.489 1.763c-.523.343-1.231.618-2.123.824-.884.214-1.776.322-2.677.322-2.179 0-4.049-.463-5.61-1.39-1.561-.918-2.732-2.252-3.513-4.002-.806-1.81-1.162-3.976-1.068-6.498.103-2.35.63-4.461 1.583-6.331.952-1.879 2.252-3.337 3.899-4.375 1.656-1.038 3.539-1.557 5.649-1.557 2.136 0 3.972.472 5.507 1.415 1.544.935 2.698 2.286 3.461 4.053.763 1.759 1.094 3.822.991 6.189zm-12.983 1.235c-.111 1.167-.009 2.055.309 2.664.317.6.824.901 1.518.901.463 0 .901-.202 1.313-.605.412-.412.746-.974 1.004-1.686l.579-6.344a3.505 3.505 0 0 0-1.248-.245c-.952 0-1.729.45-2.329 1.351-.6.892-.982 2.213-1.145 3.963zm15.698-1.634c0-2.145.498-3.865 1.493-5.16.995-1.304 2.329-1.956 4.002-1.956 1.476 0 2.668.515 3.577 1.544V4.705h3.127V24.47h-2.831l-.154-1.441c-.935 1.132-2.183 1.698-3.745 1.698-1.63 0-2.951-.656-3.963-1.969-1.004-1.312-1.505-3.097-1.505-5.353zm3.127.27c0 1.416.27 2.522.811 3.32.549.789 1.325 1.184 2.329 1.184 1.278 0 2.213-.571 2.805-1.711v-5.945c-.575-1.115-1.501-1.673-2.779-1.673-1.012 0-1.793.403-2.342 1.21-.549.798-.824 2.003-.824 3.616zm18.992 7.052c-1.982 0-3.59-.622-4.825-1.866-1.227-1.253-1.84-2.917-1.84-4.993v-.386c0-1.39.266-2.629.798-3.719.54-1.098 1.295-1.952 2.265-2.561s2.05-.914 3.243-.914c1.896 0 3.358.605 4.388 1.814 1.038 1.21 1.557 2.921 1.557 5.134v1.261h-9.097c.094 1.149.476 2.059 1.145 2.728.678.669 1.527 1.004 2.548 1.004 1.432 0 2.599-.579 3.5-1.737l1.686 1.608a5.67 5.67 0 0 1-2.239 1.943c-.927.455-1.969.682-3.127.682zM143.67 12.8c-.858 0-1.553.3-2.085.901-.523.601-.858 1.437-1.004 2.509h5.958v-.232c-.069-1.047-.347-1.836-.836-2.368-.489-.54-1.167-.811-2.033-.811zm13.652 7.707 2.947-9.96h3.23l-4.825 13.923h-2.715l-4.864-13.923h3.243l2.985 9.959zm16.47.18c0-.558-.232-.982-.695-1.274-.455-.292-1.214-.549-2.278-.772s-1.952-.506-2.664-.849c-1.561-.755-2.342-1.849-2.342-3.281 0-1.201.506-2.205 1.518-3.011s2.299-1.21 3.86-1.21c1.664 0 3.007.412 4.027 1.235 1.029.824 1.544 1.892 1.544 3.204h-3.127c0-.601-.223-1.098-.669-1.493-.446-.403-1.038-.605-1.776-.605-.686 0-1.248.159-1.686.476a1.505 1.505 0 0 0-.643 1.274c0 .48.201.854.605 1.12s1.218.536 2.445.811c1.227.266 2.187.588 2.882.965.703.369 1.222.815 1.557 1.338.343.523.515 1.158.515 1.904 0 1.252-.519 2.269-1.557 3.05-1.038.772-2.398 1.158-4.079 1.158-1.141 0-2.158-.206-3.05-.618s-1.587-.978-2.085-1.699c-.498-.721-.746-1.497-.746-2.329h3.037c.043.738.322 1.308.837 1.711.515.395 1.197.592 2.046.592.824 0 1.45-.155 1.879-.463.429-.317.643-.729.643-1.235zm10.255-13.523v3.384h2.458v2.316h-2.458v7.772c0 .532.103.918.309 1.158.215.232.592.347 1.132.347.36 0 .725-.043 1.094-.129v2.419a7.712 7.712 0 0 1-2.059.296c-2.402 0-3.603-1.325-3.603-3.976v-7.888h-2.29v-2.316h2.29V7.163h3.127zm13.818 15.943c-.917 1.081-2.221 1.621-3.912 1.621-1.51 0-2.654-.442-3.435-1.325-.772-.884-1.158-2.162-1.158-3.835v-9.02h3.127v8.982c0 1.767.734 2.651 2.2 2.651 1.519 0 2.543-.545 3.076-1.634v-9.998h3.127v13.923h-2.948l-.077-1.364zm6.152-5.701c0-2.145.497-3.865 1.493-5.16.994-1.304 2.328-1.956 4.002-1.956 1.476 0 2.667.515 3.576 1.544V4.705h3.127V24.47h-2.831l-.154-1.441c-.936 1.132-2.184 1.698-3.744 1.698-1.63 0-2.952-.656-3.962-1.969-1.005-1.312-1.506-3.097-1.506-5.353zm3.127.27c0 1.416.269 2.522.811 3.32.548.789 1.325 1.184 2.328 1.184 1.278 0 2.214-.571 2.805-1.711v-5.945c-.574-1.115-1.5-1.673-2.78-1.673-1.011 0-1.792.403-2.342 1.21-.548.798-.823 2.003-.823 3.616zm16.186 6.795h-3.127V10.548h3.127v13.923zm-3.319-17.539c0-.48.149-.879.45-1.197.309-.317.745-.476 1.312-.476s1.003.159 1.312.476c.309.317.463.716.463 1.197 0 .472-.154.866-.463 1.184-.309.309-.745.463-1.312.463s-1.003-.154-1.312-.463c-.301-.317-.45-.712-.45-1.184zm6.677 10.449c0-1.364.271-2.591.811-3.68.54-1.098 1.299-1.939 2.278-2.522.977-.592 2.101-.888 3.371-.888 1.879 0 3.401.605 4.567 1.814 1.176 1.21 1.811 2.814 1.905 4.813l.013.733c0 1.373-.265 2.599-.798 3.68-.523 1.081-1.278 1.917-2.264 2.509-.977.592-2.11.888-3.398.888-1.963 0-3.537-.652-4.721-1.956-1.176-1.313-1.764-3.058-1.764-5.237v-.154zm3.127.27c0 1.433.296 2.556.888 3.371.591.806 1.416 1.209 2.47 1.209 1.056 0 1.875-.412 2.458-1.235.593-.824.888-2.029.888-3.616 0-1.407-.305-2.522-.915-3.346-.6-.824-1.419-1.235-2.456-1.235-1.022 0-1.832.408-2.432 1.222-.6.806-.902 2.016-.902 3.629zm14.938 3.525c.584 0 1.035.167 1.352.502.318.326.476.738.476 1.235 0 .489-.158.896-.476 1.222-.316.317-.768.476-1.352.476-.557 0-.998-.159-1.325-.476-.326-.318-.488-.725-.488-1.222s.158-.909.476-1.235c.316-.334.762-.502 1.336-.502zm11.659 1.056c.779 0 1.427-.227 1.943-.682.514-.455.789-1.016.823-1.686h2.948a4.644 4.644 0 0 1-.811 2.432c-.506.746-1.192 1.338-2.059 1.776a6.139 6.139 0 0 1-2.805.656c-1.946 0-3.492-.63-4.632-1.892s-1.711-3.002-1.711-5.224v-.322c0-2.119.567-3.813 1.698-5.083 1.133-1.278 2.677-1.917 4.632-1.917 1.656 0 3.002.485 4.041 1.454 1.047.961 1.594 2.226 1.647 3.796h-2.948c-.034-.798-.309-1.454-.823-1.969-.506-.515-1.154-.772-1.943-.772-1.013 0-1.794.369-2.344 1.107-.548.729-.826 1.84-.836 3.333v.502c0 1.51.271 2.638.811 3.384.548.738 1.338 1.106 2.368 1.106zm8.015-4.851c0-1.364.271-2.591.811-3.68.54-1.098 1.299-1.939 2.278-2.522.977-.592 2.101-.888 3.371-.888 1.879 0 3.401.605 4.567 1.814 1.176 1.21 1.811 2.814 1.905 4.813l.013.733c0 1.373-.265 2.599-.798 3.68-.523 1.081-1.278 1.917-2.264 2.509-.977.592-2.11.888-3.398.888-1.963 0-3.537-.652-4.721-1.956-1.176-1.313-1.764-3.058-1.764-5.237v-.154zm3.127.27c0 1.433.296 2.556.888 3.371.591.806 1.416 1.209 2.47 1.209 1.056 0 1.875-.412 2.458-1.235.593-.824.888-2.029.888-3.616 0-1.407-.305-2.522-.915-3.346-.6-.824-1.419-1.235-2.456-1.235-1.022 0-1.832.408-2.432 1.222-.6.806-.902 2.016-.902 3.629zm15.93-7.103.09 1.454c.977-1.141 2.315-1.711 4.013-1.711 1.862 0 3.136.712 3.823 2.136 1.013-1.424 2.436-2.136 4.271-2.136 1.536 0 2.677.425 3.424 1.274.755.849 1.141 2.102 1.158 3.757v9.149h-3.127v-9.059c0-.884-.194-1.531-.58-1.943s-1.024-.618-1.916-.618c-.713 0-1.297.193-1.751.579-.446.377-.759.875-.939 1.493l.013 9.548h-3.127v-9.162c-.043-1.638-.881-2.458-2.509-2.458-1.254 0-2.14.51-2.664 1.531V24.47h-3.128V10.547h2.948zM27.294 3.765H2.823A2.827 2.827 0 0 0-.001 6.589V23.53a2.827 2.827 0 0 0 2.824 2.824h24.471a2.827 2.827 0 0 0 2.824-2.824V6.589a2.827 2.827 0 0 0-2.824-2.824zm0 1.882c.128 0 .249.027.361.073L15.059 16.637 2.463 5.72a.942.942 0 0 1 .361-.073h24.471zm0 18.824H2.823a.942.942 0 0 1-.941-.941V7.709l12.56 10.885a.942.942 0 0 0 1.234 0l12.56-10.885V23.53a.942.942 0 0 1-.941.941z"/><path d="M53.87 24.471h-3.127V10.548h3.127v13.923zM50.55 6.932c0-.48.15-.879.45-1.197.309-.317.746-.476 1.312-.476s1.004.159 1.313.476c.309.317.463.716.463 1.197 0 .472-.155.866-.463 1.184-.309.309-.746.463-1.313.463S51.308 8.425 51 8.116c-.3-.317-.45-.712-.45-1.184zm10.165 3.616.09 1.608c1.029-1.244 2.38-1.866 4.053-1.866 2.899 0 4.375 1.66 4.426 4.98v9.2h-3.127v-9.02c0-.884-.193-1.536-.579-1.956-.377-.429-.999-.643-1.866-.643-1.261 0-2.2.57-2.818 1.711v9.908h-3.127V10.547h2.947zm13.394 13.923V12.864h-2.123v-2.316h2.123V9.274c0-1.544.429-2.737 1.287-3.577s2.059-1.261 3.603-1.261c.549 0 1.132.077 1.75.232l-.077 2.445a6.13 6.13 0 0 0-1.197-.103c-1.493 0-2.239.768-2.239 2.303v1.235h2.831v2.316h-2.831v11.607h-3.127zm8.184-7.09c0-1.364.27-2.591.811-3.68.54-1.098 1.3-1.939 2.278-2.522.978-.592 2.102-.888 3.371-.888 1.879 0 3.401.605 4.568 1.814 1.175 1.21 1.81 2.814 1.904 4.813l.013.733c0 1.373-.266 2.599-.798 3.68-.523 1.081-1.278 1.917-2.265 2.509-.978.592-2.11.888-3.397.888-1.964 0-3.538-.652-4.722-1.956-1.175-1.313-1.763-3.058-1.763-5.237v-.154zm3.126.27c0 1.433.296 2.556.888 3.371.592.806 1.416 1.209 2.471 1.209s1.874-.412 2.458-1.235c.592-.824.888-2.029.888-3.616 0-1.407-.305-2.522-.914-3.346-.6-.824-1.42-1.235-2.458-1.235-1.021 0-1.832.408-2.432 1.222-.6.806-.901 2.016-.901 3.629zm33.79.154c-.103 2.145-.631 3.839-1.583 5.083-.952 1.235-2.243 1.853-3.873 1.853-1.553 0-2.591-.661-3.114-1.982-.437.652-.948 1.141-1.531 1.467a3.626 3.626 0 0 1-1.814.489c-1.253 0-2.205-.515-2.857-1.544-.643-1.029-.888-2.406-.733-4.131.137-1.398.476-2.659 1.016-3.783.549-1.124 1.24-1.99 2.072-2.599.841-.618 1.733-.926 2.677-.926.721 0 1.355.09 1.904.27.558.18 1.21.553 1.956 1.119l-.669 7.244c-.163 1.699.326 2.548 1.467 2.548.875 0 1.591-.468 2.149-1.403.566-.944.875-2.162.927-3.654.146-3.165-.468-5.589-1.84-7.27-1.364-1.681-3.419-2.522-6.164-2.522-1.681 0-3.174.42-4.478 1.261-1.295.841-2.325 2.059-3.088 3.654-.763 1.587-1.184 3.397-1.261 5.43-.103 2.067.142 3.852.734 5.353.6 1.493 1.514 2.629 2.741 3.41 1.235.781 2.741 1.171 4.517 1.171.721 0 1.471-.086 2.252-.257.789-.171 1.458-.403 2.007-.695l.489 1.763c-.523.343-1.231.618-2.123.824-.884.214-1.776.322-2.677.322-2.179 0-4.049-.463-5.61-1.39-1.561-.918-2.732-2.252-3.513-4.002-.806-1.81-1.162-3.976-1.068-6.498.103-2.35.63-4.461 1.583-6.331.952-1.879 2.252-3.337 3.899-4.375 1.656-1.038 3.539-1.557 5.649-1.557 2.136 0 3.972.472 5.507 1.415 1.544.935 2.698 2.286 3.461 4.053.763 1.759 1.094 3.822.991 6.189zm-12.983 1.235c-.111 1.167-.009 2.055.309 2.664.317.6.824.901 1.518.901.463 0 .901-.202 1.313-.605.412-.412.746-.974 1.004-1.686l.579-6.344a3.505 3.505 0 0 0-1.248-.245c-.952 0-1.729.45-2.329 1.351-.6.892-.982 2.213-1.145 3.963zm15.698-1.634c0-2.145.498-3.865 1.493-5.16.995-1.304 2.329-1.956 4.002-1.956 1.476 0 2.668.515 3.577 1.544V4.705h3.127V24.47h-2.831l-.154-1.441c-.935 1.132-2.183 1.698-3.745 1.698-1.63 0-2.951-.656-3.963-1.969-1.004-1.312-1.505-3.097-1.505-5.353zm3.127.27c0 1.416.27 2.522.811 3.32.549.789 1.325 1.184 2.329 1.184 1.278 0 2.213-.571 2.805-1.711v-5.945c-.575-1.115-1.501-1.673-2.779-1.673-1.012 0-1.793.403-2.342 1.21-.549.798-.824 2.003-.824 3.616zm18.992 7.052c-1.982 0-3.59-.622-4.825-1.866-1.227-1.253-1.84-2.917-1.84-4.993v-.386c0-1.39.266-2.629.798-3.719.54-1.098 1.295-1.952 2.265-2.561s2.05-.914 3.243-.914c1.896 0 3.358.605 4.388 1.814 1.038 1.21 1.557 2.921 1.557 5.134v1.261h-9.097c.094 1.149.476 2.059 1.145 2.728.678.669 1.527 1.004 2.548 1.004 1.432 0 2.599-.579 3.5-1.737l1.686 1.608a5.67 5.67 0 0 1-2.239 1.943c-.927.455-1.969.682-3.127.682zM143.67 12.8c-.858 0-1.553.3-2.085.901-.523.601-.858 1.437-1.004 2.509h5.958v-.232c-.069-1.047-.347-1.836-.836-2.368-.489-.54-1.167-.811-2.033-.811zm13.652 7.707 2.947-9.96h3.23l-4.825 13.923h-2.715l-4.864-13.923h3.243l2.985 9.959zm16.47.18c0-.558-.232-.982-.695-1.274-.455-.292-1.214-.549-2.278-.772s-1.952-.506-2.664-.849c-1.561-.755-2.342-1.849-2.342-3.281 0-1.201.506-2.205 1.518-3.011s2.299-1.21 3.86-1.21c1.664 0 3.007.412 4.027 1.235 1.029.824 1.544 1.892 1.544 3.204h-3.127c0-.601-.223-1.098-.669-1.493-.446-.403-1.038-.605-1.776-.605-.686 0-1.248.159-1.686.476a1.505 1.505 0 0 0-.643 1.274c0 .48.201.854.605 1.12s1.218.536 2.445.811c1.227.266 2.187.588 2.882.965.703.369 1.222.815 1.557 1.338.343.523.515 1.158.515 1.904 0 1.252-.519 2.269-1.557 3.05-1.038.772-2.398 1.158-4.079 1.158-1.141 0-2.158-.206-3.05-.618s-1.587-.978-2.085-1.699c-.498-.721-.746-1.497-.746-2.329h3.037c.043.738.322 1.308.837 1.711.515.395 1.197.592 2.046.592.824 0 1.45-.155 1.879-.463.429-.317.643-.729.643-1.235zm10.255-13.523v3.384h2.458v2.316h-2.458v7.772c0 .532.103.918.309 1.158.215.232.592.347 1.132.347.36 0 .725-.043 1.094-.129v2.419a7.712 7.712 0 0 1-2.059.296c-2.402 0-3.603-1.325-3.603-3.976v-7.888h-2.29v-2.316h2.29V7.163h3.127zm13.818 15.943c-.917 1.081-2.221 1.621-3.912 1.621-1.51 0-2.654-.442-3.435-1.325-.772-.884-1.158-2.162-1.158-3.835v-9.02h3.127v8.982c0 1.767.734 2.651 2.2 2.651 1.519 0 2.543-.545 3.076-1.634v-9.998h3.127v13.923h-2.948l-.077-1.364zm6.152-5.701c0-2.145.497-3.865 1.493-5.16.994-1.304 2.328-1.956 4.002-1.956 1.476 0 2.667.515 3.576 1.544V4.705h3.127V24.47h-2.831l-.154-1.441c-.936 1.132-2.184 1.698-3.744 1.698-1.63 0-2.952-.656-3.962-1.969-1.005-1.312-1.506-3.097-1.506-5.353zm3.127.27c0 1.416.269 2.522.811 3.32.548.789 1.325 1.184 2.328 1.184 1.278 0 2.214-.571 2.805-1.711v-5.945c-.574-1.115-1.5-1.673-2.78-1.673-1.011 0-1.792.403-2.342 1.21-.548.798-.823 2.003-.823 3.616zm16.186 6.795h-3.127V10.548h3.127v13.923zm-3.319-17.539c0-.48.149-.879.45-1.197.309-.317.745-.476 1.312-.476s1.003.159 1.312.476c.309.317.463.716.463 1.197 0 .472-.154.866-.463 1.184-.309.309-.745.463-1.312.463s-1.003-.154-1.312-.463c-.301-.317-.45-.712-.45-1.184zm6.677 10.449c0-1.364.271-2.591.811-3.68.54-1.098 1.299-1.939 2.278-2.522.977-.592 2.101-.888 3.371-.888 1.879 0 3.401.605 4.567 1.814 1.176 1.21 1.811 2.814 1.905 4.813l.013.733c0 1.373-.265 2.599-.798 3.68-.523 1.081-1.278 1.917-2.264 2.509-.977.592-2.11.888-3.398.888-1.963 0-3.537-.652-4.721-1.956-1.176-1.313-1.764-3.058-1.764-5.237v-.154zm3.127.27c0 1.433.296 2.556.888 3.371.591.806 1.416 1.209 2.47 1.209 1.056 0 1.875-.412 2.458-1.235.593-.824.888-2.029.888-3.616 0-1.407-.305-2.522-.915-3.346-.6-.824-1.419-1.235-2.456-1.235-1.022 0-1.832.408-2.432 1.222-.6.806-.902 2.016-.902 3.629zm14.938 3.525c.584 0 1.035.167 1.352.502.318.326.476.738.476 1.235 0 .489-.158.896-.476 1.222-.316.317-.768.476-1.352.476-.557 0-.998-.159-1.325-.476-.326-.318-.488-.725-.488-1.222s.158-.909.476-1.235c.316-.334.762-.502 1.336-.502zm11.659 1.056c.779 0 1.427-.227 1.943-.682.514-.455.789-1.016.823-1.686h2.948a4.644 4.644 0 0 1-.811 2.432c-.506.746-1.192 1.338-2.059 1.776a6.139 6.139 0 0 1-2.805.656c-1.946 0-3.492-.63-4.632-1.892s-1.711-3.002-1.711-5.224v-.322c0-2.119.567-3.813 1.698-5.083 1.133-1.278 2.677-1.917 4.632-1.917 1.656 0 3.002.485 4.041 1.454 1.047.961 1.594 2.226 1.647 3.796h-2.948c-.034-.798-.309-1.454-.823-1.969-.506-.515-1.154-.772-1.943-.772-1.013 0-1.794.369-2.344 1.107-.548.729-.826 1.84-.836 3.333v.502c0 1.51.271 2.638.811 3.384.548.738 1.338 1.106 2.368 1.106zm8.015-4.851c0-1.364.271-2.591.811-3.68.54-1.098 1.299-1.939 2.278-2.522.977-.592 2.101-.888 3.371-.888 1.879 0 3.401.605 4.567 1.814 1.176 1.21 1.811 2.814 1.905 4.813l.013.733c0 1.373-.265 2.599-.798 3.68-.523 1.081-1.278 1.917-2.264 2.509-.977.592-2.11.888-3.398.888-1.963 0-3.537-.652-4.721-1.956-1.176-1.313-1.764-3.058-1.764-5.237v-.154zm3.127.27c0 1.433.296 2.556.888 3.371.591.806 1.416 1.209 2.47 1.209 1.056 0 1.875-.412 2.458-1.235.593-.824.888-2.029.888-3.616 0-1.407-.305-2.522-.915-3.346-.6-.824-1.419-1.235-2.456-1.235-1.022 0-1.832.408-2.432 1.222-.6.806-.902 2.016-.902 3.629zm15.93-7.103.09 1.454c.977-1.141 2.315-1.711 4.013-1.711 1.862 0 3.136.712 3.823 2.136 1.013-1.424 2.436-2.136 4.271-2.136 1.536 0 2.677.425 3.424 1.274.755.849 1.141 2.102 1.158 3.757v9.149h-3.127v-9.059c0-.884-.194-1.531-.58-1.943s-1.024-.618-1.916-.618c-.713 0-1.297.193-1.751.579-.446.377-.759.875-.939 1.493l.013 9.548h-3.127v-9.162c-.043-1.638-.881-2.458-2.509-2.458-1.254 0-2.14.51-2.664 1.531V24.47h-3.128V10.547h2.948z"/></symbol>


<symbol id="icon-astronaut" viewBox="0 0 32 32">
<path fill="#2196f3" style="fill: var(--color2, #2196f3)" d="M31.974 4.524c-0.063-0.193-0.229-0.333-0.43-0.363l-1.91-0.278-0.855-1.731c-0.179-0.365-0.777-0.365-0.956 0l-0.855 1.731-1.91 0.278c-0.201 0.029-0.367 0.17-0.431 0.363-0.062 0.193-0.011 0.405 0.135 0.547l1.383 1.348-0.326 1.903c-0.034 0.2 0.048 0.402 0.212 0.522 0.166 0.121 0.382 0.135 0.562 0.040l1.709-0.899 1.709 0.899c0.078 0.041 0.164 0.061 0.249 0.061 0.11 0 0.221-0.034 0.314-0.102 0.164-0.119 0.246-0.322 0.212-0.522l-0.326-1.903 1.383-1.348c0.145-0.142 0.197-0.354 0.135-0.547zM29.511 5.851c-0.125 0.122-0.183 0.299-0.153 0.472l0.191 1.114-1-0.526c-0.078-0.041-0.163-0.061-0.249-0.061s-0.17 0.020-0.249 0.061l-1.001 0.526 0.191-1.114c0.030-0.173-0.028-0.349-0.153-0.472l-0.81-0.789 1.119-0.163c0.174-0.025 0.324-0.134 0.402-0.292l0.5-1.013 0.5 1.013c0.078 0.157 0.228 0.267 0.402 0.292l1.119 0.163-0.809 0.789z"></path>
<path fill="#2196f3" style="fill: var(--color2, #2196f3)" d="M26.134 20.522h-1.067v1.067h1.067v-1.067z"></path>
<path fill="#2196f3" style="fill: var(--color2, #2196f3)" d="M26.134 22.656h-1.067v1.067h1.067v-1.067z"></path>
<path fill="#2196f3" style="fill: var(--color2, #2196f3)" d="M27.2 21.589h-1.067v1.067h1.067v-1.067z"></path>
<path fill="#2196f3" style="fill: var(--color2, #2196f3)" d="M25.067 21.589h-1.067v1.067h1.067v-1.067z"></path>
<path fill="#2196f3" style="fill: var(--color2, #2196f3)" d="M22.4 26.389h-1.067v1.067h1.067v-1.067z"></path>
<path fill="#2196f3" style="fill: var(--color2, #2196f3)" d="M22.4 28.522h-1.067v1.067h1.067v-1.067z"></path>
<path fill="#2196f3" style="fill: var(--color2, #2196f3)" d="M23.467 27.456h-1.067v1.067h1.067v-1.067z"></path>
<path fill="#2196f3" style="fill: var(--color2, #2196f3)" d="M21.333 27.456h-1.067v1.067h1.067v-1.067z"></path>
<path fill="#2196f3" style="fill: var(--color2, #2196f3)" d="M16 24.256h-1.067v1.067h1.067v-1.067z"></path>
<path fill="#2196f3" style="fill: var(--color2, #2196f3)" d="M16 26.389h-1.067v1.067h1.067v-1.067z"></path>
<path fill="#2196f3" style="fill: var(--color2, #2196f3)" d="M17.067 25.322h-1.067v1.067h1.067v-1.067z"></path>
<path fill="#2196f3" style="fill: var(--color2, #2196f3)" d="M14.933 25.322h-1.067v1.067h1.067v-1.067z"></path>
<path fill="#2196f3" style="fill: var(--color2, #2196f3)" d="M5.867 6.122h-1.067v1.067h1.067v-1.067z"></path>
<path fill="#2196f3" style="fill: var(--color2, #2196f3)" d="M5.867 8.255h-1.067v1.067h1.067v-1.067z"></path>
<path fill="#2196f3" style="fill: var(--color2, #2196f3)" d="M6.933 7.189h-1.067v1.067h1.067v-1.067z"></path>
<path fill="#2196f3" style="fill: var(--color2, #2196f3)" d="M4.8 7.189h-1.067v1.067h1.067v-1.067z"></path>
<path fill="#212121" style="fill: var(--color1, #212121)" d="M24.715 14.159c-0.287-0.388-0.709-0.637-1.188-0.705-0.481-0.068-0.956 0.058-1.34 0.352l-1.252 0.96-1.898 1.417-1.358-0.541c2.421-1.086 4.114-3.508 4.114-6.32 0-3.823-3.123-6.933-6.961-6.933s-6.961 3.11-6.961 6.933c0 1.386 0.414 2.674 1.12 3.758l-2.764-0.024c-0.002 0-0.003 0-0.005 0-0.009 0-0.015 0.004-0.023 0.005-0.053 0.002-0.105 0.013-0.155 0.031-0.013 0.005-0.026 0.008-0.038 0.013-0.006 0.003-0.013 0.003-0.019 0.006l-3.233 1.596c-0.001 0-0.001 0-0.001 0.001l-1.893 0.911c-0.021 0.009-0.042 0.021-0.063 0.035-0.755 0.502-1.012 1.489-0.598 2.295 0.22 0.429 0.595 0.745 1.056 0.889 0.178 0.055 0.359 0.083 0.539 0.083 0.29 0 0.577-0.071 0.839-0.211l1.388-0.738 2.264-1.169 1.357-0.008-5.442 5.416c-0.001 0.001-0.001 0.001-0.002 0.001l-1.339 1.333c-0.316 0.315-0.49 0.732-0.49 1.178s0.174 0.863 0.49 1.179c0.325 0.323 0.752 0.485 1.179 0.485s0.854-0.162 1.18-0.485l1.314-1.309 1.741-1.3 0.901 0.897-1.762 1.754c-0 0.001-0.001 0.001-0.002 0.001l-1.339 1.333c-0.316 0.315-0.49 0.732-0.49 1.178s0.174 0.863 0.49 1.179c0.325 0.323 0.753 0.485 1.18 0.485s0.855-0.162 1.18-0.485l3.482-3.467c0.001-0.001 0.001-0.001 0.001-0.002l1.010-1-0.004-0.004c0.006-0.006 0.015-0.009 0.022-0.015l5.166-5.658 3.471 0.494c0.025 0.004 0.050 0.005 0.075 0.005 0.065 0 0.127-0.015 0.187-0.038 0.018-0.006 0.033-0.015 0.050-0.023 0.019-0.010 0.039-0.015 0.058-0.027l3.213-2.133c0.012-0.008 0.018-0.021 0.029-0.029 0.013-0.010 0.029-0.014 0.041-0.026l1.271-1.191c0.662-0.62 0.753-1.635 0.212-2.362zM2.13 17.77c-0.173 0.093-0.37 0.111-0.558 0.052-0.187-0.058-0.338-0.186-0.427-0.358-0.161-0.314-0.068-0.695 0.214-0.902l1.314-0.632 0.449 1.313-0.992 0.527zM5.628 15.942l-1.548 0.8-0.439-1.283 2.027-1.001-0.040 1.484zM20.727 9.322c0 0.918-0.219 1.785-0.599 2.559l-4.181-1.899c-0.044-0.573-0.341-1.075-0.788-1.388l1.464-4.86c2.378 0.756 4.105 2.974 4.105 5.588zM8.938 9.322c0-3.235 2.644-5.867 5.894-5.867 0.253 0 0.5 0.021 0.745 0.052l-1.432 4.754c-0.019-0.001-0.037-0.006-0.057-0.006-1.033 0-1.873 0.837-1.873 1.867s0.84 1.867 1.873 1.867c0.694 0 1.294-0.383 1.618-0.945l3.862 1.755c-1.075 1.446-2.795 2.39-4.737 2.39-3.25 0-5.894-2.632-5.894-5.867zM14.894 10.122c0 0.441-0.362 0.8-0.806 0.8s-0.806-0.359-0.806-0.8c0-0.441 0.362-0.8 0.806-0.8s0.806 0.359 0.806 0.8zM2.465 25.146c-0.236 0.234-0.619 0.234-0.854 0.001-0.114-0.114-0.176-0.263-0.176-0.423s0.062-0.309 0.176-0.421l0.962-0.959 0.851 0.848-0.959 0.955zM5.679 28.88c-0.236 0.234-0.619 0.235-0.855 0.001-0.114-0.114-0.176-0.263-0.176-0.423s0.062-0.309 0.176-0.421l0.963-0.959 0.852 0.848-0.96 0.955zM9.16 25.411c-0.001 0-0.001 0-0.002 0.001l-1.765 1.76-0.852-0.848 1.763-1.755c0 0 0 0 0-0s0.001-0.001 0.002-0.001c0.040-0.040 0.065-0.088 0.090-0.135 0.007-0.014 0.020-0.026 0.026-0.040 0.017-0.041 0.019-0.085 0.026-0.129 0.003-0.025 0.014-0.047 0.014-0.073 0-0.036-0.013-0.070-0.020-0.106-0.006-0.032-0.006-0.065-0.019-0.095-0.020-0.050-0.055-0.094-0.091-0.138-0.010-0.012-0.014-0.027-0.025-0.038 0 0 0 0-0.001 0s-0.001-0.002-0.001-0.002l-1.607-1.6c-0.017-0.017-0.039-0.024-0.058-0.038-0.028-0.022-0.055-0.042-0.087-0.058-0.030-0.015-0.061-0.024-0.093-0.033-0.034-0.010-0.067-0.017-0.103-0.020-0.033-0.002-0.063 0.001-0.095 0.005-0.036 0.004-0.069 0.009-0.104 0.020-0.034 0.011-0.063 0.027-0.094 0.045-0.020 0.011-0.042 0.015-0.061 0.029l-1.773 1.324-0.901-0.897 2.399-2.386 4.361 4.289-0.928 0.919zM15.979 18.394c-0.015-0.002-0.030 0.004-0.045 0.003-0.039-0.002-0.076 0.001-0.115 0.007-0.030 0.005-0.059 0.011-0.088 0.021-0.034 0.012-0.065 0.028-0.097 0.047-0.030 0.018-0.057 0.037-0.083 0.061-0.013 0.011-0.028 0.017-0.040 0.029l-4.698 5.146-4.328-4.257 2.833-2.818c0.209-0.208 0.21-0.546 0.002-0.755-0.105-0.105-0.243-0.157-0.381-0.156v-0.001l-2.219 0.013 0.028-1.607 3.104 0.027c1.265 1.294 3.029 2.101 4.981 2.101 0.437 0 0.864-0.045 1.279-0.123 0.040 0.032 0.079 0.065 0.13 0.085l2.41 0.96 0.152 0.758 0.178 0.885-3.003-0.427zM20.020 18.572l-0.313-1.558 1.446-1.080 0.947 1.257-2.080 1.381zM23.774 15.741l-0.838 0.785-0.931-1.236 0.831-0.637c0.155-0.119 0.351-0.168 0.543-0.143 0.193 0.027 0.364 0.128 0.48 0.284 0.217 0.292 0.18 0.699-0.085 0.947z"></path>
<path fill="#212121" style="fill: var(--color1, #212121)" d="M13.602 18.544l-2.143-2.133c-0.207-0.207-0.545-0.207-0.753 0l-2.142 2.133c-0.1 0.101-0.157 0.236-0.157 0.378s0.056 0.278 0.157 0.378l2.142 2.133c0.104 0.103 0.241 0.155 0.377 0.155s0.273-0.052 0.376-0.155l2.143-2.133c0.1-0.1 0.157-0.236 0.157-0.378s-0.057-0.278-0.157-0.378zM11.083 20.303l-1.387-1.381 1.387-1.381 1.387 1.381-1.387 1.381z"></path>
<path fill="#212121" style="fill: var(--color1, #212121)" d="M17.164 5.071l-0.258 1.036c0.071 0.018 1.738 0.452 1.738 2.149h1.067c-0-2.017-1.666-2.965-2.547-3.185z"></path>
<path fill="#212121" style="fill: var(--color1, #212121)" d="M19.711 9.322h-1.067v1.067h1.067v-1.067z"></path>
</symbol>
<symbol id="icon-diagram" viewBox="0 0 32 32">
<path fill="#2196f3" style="fill: var(--color2, #2196f3)" d="M14.926 14.965h1.066v4.798h-1.066v-4.797z"></path>
<path fill="#2196f3" style="fill: var(--color2, #2196f3)" d="M19.19 17.097h1.066v2.665h-1.066v-2.665z"></path>
<path fill="#2196f3" style="fill: var(--color2, #2196f3)" d="M10.661 18.696h1.066v1.066h-1.066v-1.066z"></path>
<path fill="#2196f3" style="fill: var(--color2, #2196f3)" d="M7.463 18.163h1.066v1.599h-1.066v-1.599z"></path>
<path fill="#212121" style="fill: var(--color1, #212121)" d="M1.599 28.291h25.587c0.883 0 1.599-0.716 1.599-1.599v-2.132c0-0.883-0.716-1.599-1.599-1.599h-0.533v-13.293l3.028-2.868c0.703 0.346 1.553 0.136 2.013-0.499s0.396-1.508-0.152-2.068-1.42-0.644-2.065-0.198c-0.644 0.446-0.873 1.292-0.542 2.002l-2.281 2.163v-1.23c0-0.883-0.716-1.599-1.599-1.599h-21.322c-0.883 0-1.599 0.716-1.599 1.599v15.992h-0.533c-0.883 0-1.599 0.716-1.599 1.599v2.132c0 0.883 0.716 1.599 1.599 1.599zM30.384 4.837c0.294 0 0.533 0.239 0.533 0.533s-0.239 0.533-0.533 0.533c-0.294 0-0.533-0.239-0.533-0.533s0.239-0.533 0.533-0.533zM3.198 6.969c0-0.294 0.239-0.533 0.533-0.533h21.322c0.294 0 0.533 0.239 0.533 0.533v2.239l-1.066 1.013v-2.186c0-0.294-0.239-0.533-0.533-0.533h-19.19c-0.294 0-0.533 0.239-0.533 0.533v13.326c0 0.294 0.239 0.533 0.533 0.533h19.19c0.294 0 0.533-0.239 0.533-0.533v-9.674l1.066-1.010v12.284h-22.388v-15.992zM7.996 13.899c-0.721-0.002-1.354 0.478-1.546 1.174s0.105 1.433 0.725 1.801c0.62 0.368 1.41 0.276 1.928-0.226l1.853 0.93c0.215 0.108 0.476 0.057 0.636-0.123l3.939-4.431 3.872 2.901c0.208 0.156 0.498 0.139 0.686-0.039l3.365-3.188v8.131h-18.124v-12.26h18.124v2.66l-3.771 3.572-3.904-2.927c-0.222-0.166-0.534-0.135-0.718 0.072l-3.993 4.493-1.493-0.746c0.011-0.064 0.018-0.129 0.020-0.193 0-0.883-0.716-1.599-1.599-1.599zM8.529 15.498c0 0.294-0.239 0.533-0.533 0.533s-0.533-0.239-0.533-0.533c0-0.294 0.239-0.533 0.533-0.533s0.533 0.239 0.533 0.533zM11.727 24.026h5.331v0.533c0 0.294-0.239 0.533-0.533 0.533h-4.264c-0.294 0-0.533-0.239-0.533-0.533v-0.533zM1.066 24.56c0-0.294 0.239-0.533 0.533-0.533h9.062v0.533c0 0.883 0.716 1.599 1.599 1.599h4.264c0.883 0 1.599-0.716 1.599-1.599v-0.533h9.062c0.294 0 0.533 0.239 0.533 0.533v2.132c0 0.294-0.239 0.533-0.533 0.533h-25.587c-0.294 0-0.533-0.239-0.533-0.533v-2.132z"></path>
</symbol>
<symbol id="icon-clock" viewBox="0 0 32 32">
<path fill="#212121" style="fill: var(--color1, #212121)" d="M31.297 15.301c-0.002-8.452-6.855-15.303-15.308-15.301s-15.303 6.855-15.301 15.308c0.001 6.658 4.307 12.551 10.649 14.576 0.061 0.019 0.124 0.029 0.187 0.029 0.121-0 0.239-0.032 0.342-0.094 0.135-0.080 0.236-0.207 0.283-0.356l3.865-12.25c1.057-0.005 1.909-0.866 1.903-1.923s-0.866-1.909-1.923-1.903c-0.284 0.001-0.565 0.067-0.82 0.191l-5.106-5.107c-0.253-0.245-0.657-0.238-0.902 0.016-0.239 0.247-0.239 0.639 0 0.886l5.103 5.109c-0.392 0.799-0.168 1.764 0.536 2.309l-3.683 11.673c-7.278-2.681-11.004-10.754-8.323-18.032s10.754-11.004 18.032-8.323 11.004 10.754 8.323 18.032c-1.31 3.556-4.001 6.431-7.462 7.973l-0.398-1.874c-0.073-0.344-0.411-0.565-0.756-0.492-0.109 0.023-0.209 0.074-0.292 0.148l-3.837 3.426c-0.263 0.234-0.287 0.637-0.052 0.9 0.076 0.085 0.174 0.149 0.283 0.184l4.899 1.563c0.335 0.108 0.694-0.077 0.802-0.412 0.034-0.106 0.040-0.219 0.017-0.328l-0.391-1.839c5.664-2.388 9.342-7.942 9.329-14.089zM15.992 14.664c0.352 0 0.638 0.286 0.638 0.638s-0.286 0.638-0.638 0.638c-0.352 0-0.638-0.285-0.638-0.638s0.285-0.638 0.638-0.638zM18.093 29.528l2.184-1.948 0.603 2.84-2.787-0.892z"></path>
<path fill="#2196f3" style="fill: var(--color2, #2196f3)" d="M15.354 3.185v1.275c0 0.352 0.285 0.638 0.638 0.638s0.638-0.285 0.638-0.638v-1.275c0-0.352-0.286-0.638-0.638-0.638s-0.638 0.286-0.638 0.638z"></path>
<path fill="#2196f3" style="fill: var(--color2, #2196f3)" d="M3.876 14.664c-0.352 0-0.638 0.286-0.638 0.638s0.285 0.638 0.638 0.638h1.275c0.352 0 0.638-0.285 0.638-0.638s-0.285-0.638-0.638-0.638h-1.275z"></path>
<path fill="#2196f3" style="fill: var(--color2, #2196f3)" d="M28.108 15.939c0.352 0 0.638-0.285 0.638-0.638s-0.285-0.638-0.638-0.638h-1.275c-0.352 0-0.638 0.286-0.638 0.638s0.286 0.638 0.638 0.638h1.275z"></path>
</symbol>
<symbol id="icon-antena" viewBox="0 0 32 32">
<path fill="#212121" style="fill: var(--color1, #212121)" d="M30.773 22.098l-8.443-8.505 0.937-4.615c0.242 0.094 0.499 0.144 0.758 0.146h0.006c1.192 0.014 2.17-0.941 2.184-2.133s-0.941-2.17-2.133-2.184c-1.192-0.014-2.17 0.941-2.184 2.133-0.003 0.255 0.039 0.509 0.125 0.749l-4.96 0.605-8.091-8.133c-0.099-0.101-0.235-0.159-0.377-0.16-0.14 0.001-0.274 0.056-0.373 0.155l-1.513 1.504c-0.208 0.208-0.208 0.546 0 0.754l0.814 0.826c-3.153 5.798-2.129 12.978 2.519 17.663 0.043 0.041 0.092 0.074 0.146 0.098-0.034 0.18-0.051 0.364-0.052 0.547v6.187h-6.4c-1.472 0.002-2.665 1.195-2.667 2.667v1.067c0 0.295 0.239 0.533 0.533 0.533h24.533c0.295 0 0.533-0.239 0.533-0.533v-1.067c-0.002-1.472-1.195-2.665-2.667-2.667h-6.4v-2.742c1.003 0.21 2.024 0.317 3.049 0.32 2.458-0.003 4.877-0.615 7.040-1.783l0.818 0.823c0.099 0.101 0.235 0.159 0.377 0.16 0.14-0.001 0.274-0.056 0.373-0.155l1.513-1.504c0.208-0.208 0.208-0.546 0-0.754zM23.28 6.233c0.418-0.415 1.093-0.414 1.508 0.004s0.414 1.093-0.004 1.508c-0.2 0.199-0.47 0.31-0.752 0.31h-0.003c-0.589-0.003-1.064-0.483-1.061-1.072 0.002-0.282 0.115-0.552 0.314-0.751h-0.002zM22.024 9.738l-0.598 2.946-1.175-1.182 1.774-1.763zM21.419 8.836l-1.92 1.909-1.485-1.493 3.405-0.415zM24.004 28.8c0.884 0 1.6 0.716 1.6 1.6v0.533h-23.467v-0.533c0-0.884 0.716-1.6 1.6-1.6h20.267zM16.537 26.667v1.067h-5.333v-1.067h5.333zM11.204 25.6v-4.053c0-1.294 1.196-2.347 2.667-2.347s2.667 1.053 2.667 2.347v4.053h-5.333zM17.604 23.904v-2.357c0-1.882-1.675-3.413-3.733-3.413-1.331-0.020-2.576 0.657-3.281 1.786-4.058-4.274-4.971-10.645-2.279-15.887l18.602 18.708c-2.872 1.461-6.165 1.873-9.309 1.163zM28.893 23.22l-21.057-21.181 0.755-0.752 7.935 7.98c0.004 0 0.006 0.007 0.010 0.010l13.115 13.191-0.757 0.752z"></path>
<path fill="#2196f3" style="fill: var(--color2, #2196f3)" d="M13.876 20.267h-0.005c-0.884-0.001-1.601 0.714-1.602 1.598s0.714 1.601 1.598 1.602h0.005c0.884 0.001 1.601-0.714 1.602-1.598s-0.714-1.601-1.598-1.602zM14.249 22.245c-0.1 0.1-0.236 0.156-0.378 0.155-0.295-0.002-0.532-0.242-0.531-0.536 0.001-0.141 0.057-0.276 0.157-0.375s0.233-0.154 0.373-0.155c0.295 0.002 0.532 0.241 0.53 0.536-0.001 0.141-0.057 0.276-0.157 0.375h0.005z"></path>
</symbol>

<symbol id="icon-check" viewBox="0 0 34 32">
<path fill="#2196f3" d="M4.267 0h25.6a4.267 4.267 0 0 1 4.267 4.267v23.467a4.267 4.267 0 0 1-4.267 4.267h-25.6A4.267 4.267 0 0 1 0 27.734V4.267A4.267 4.267 0 0 1 4.267 0z" style="fill:var(--color1, #2196f3)"/>
<path fill="#fff" stroke="#fff" stroke-width=".427" d="m8.442 16.537-.147-.14-2.205 2.088 7.767 7.41 16.318-15.567-2.19-2.089-14.128 13.465-5.416-5.167z" style="fill:var(--color2, #fff);stroke:var(--color2, #fff)"/>
</symbol>
<symbol id="person-mod" viewBox="0 0 32 32">
<path d="M16 16c4.42 0 8-3.58 8-8s-3.58-8-8-8-8 3.58-8 8 3.58 8 8 8zm0 4c-5.34 0-16 2.68-16 8v2c0 1.1.9 2 2 2h28c1.1 0 2-.9 2-2v-2c0-5.32-10.66-8-16-8z"/>
</symbol>
<symbol id="tel-mod" viewBox="0 0 32 32">
<path d="m27.419 20.852-4.201-.48a3.293 3.293 0 0 0-2.713.943l-3.044 3.044A24.888 24.888 0 0 1 6.56 13.458l3.06-3.06a3.293 3.293 0 0 0 .943-2.713l-.48-4.168A3.31 3.31 0 0 0 6.791.589H3.929C2.06.589.505 2.144.621 4.013c.877 14.126 12.174 25.407 26.284 26.284 1.869.116 3.424-1.439 3.424-3.308v-2.862c.016-1.671-1.241-3.077-2.911-3.275z"/>
</symbol>
<symbol id="mail-mod" viewBox="0 0 32 32">
<path d="M28 4H4a2.996 2.996 0 0 0-2.985 3L1 25c0 1.65 1.35 3 3 3h24c1.65 0 3-1.35 3-3V7c0-1.65-1.35-3-3-3zm-.6 6.375-10.605 6.63c-.48.3-1.11.3-1.59 0L4.6 10.375c-.375-.24-.6-.645-.6-1.08C4 8.29 5.095 7.69 5.95 8.215L16 14.5l10.05-6.285c.855-.525 1.95.075 1.95 1.08 0 .435-.225.84-.6 1.08z"/>
</symbol>
<symbol id="icon-send" viewBox="0 0 32 32">
<path d="M32 0 0 18l10.227 3.788L26 7 14.002 23.186l.01.004-.012-.004V32l5.735-6.691L27 28l5-28z"/>
</symbol>

</defs>
</svg>
